<?xml version="1.0" encoding="UTF-8" standalone="no"?>
<!-- Created with Inkscape (http://www.inkscape.org/) -->

<svg
   width="48.802418mm"
   height="33.337425mm"
   viewBox="0 0 48.802418 33.337425"
   version="1.1"
   id="svg5"
   xmlns="http://www.w3.org/2000/svg"
   xmlns:svg="http://www.w3.org/2000/svg">
  <defs
     id="defs2" />
  <g
     id="layer1"
     transform="translate(-27.263241,-19.337629)">
    <g
       id="g436"
       transform="translate(-3.6178686,-7.018681)">
      <g
         aria-label="V"
         id="text186"
         style="font-size:35.2777px;font-family:Pacifico;-inkscape-font-specification:'Pacifico, Normal';stop-color:#000000"
         transform="translate(-2.5624382,0.61063845)">
        <path
           d="m 57.681612,45.70564 c 0.313632,0.258106 0.556285,0.510485 0.708178,0.842018 0.124595,0.271951 0.01034,0.50592 -0.08829,0.730485 -0.161213,0.367089 -0.415956,0.751012 -0.781587,0.914229 -0.345002,0.154009 -1.240631,0.07489 -1.839085,-0.05946 -0.810382,-0.181922 -1.640113,-0.600459 -2.285803,-0.991685 -1.669811,3.504251 -3.218088,5.920035 -5.593453,8.248363 -2.351847,2.304809 -4.715453,3.457214 -7.090818,3.457214 -2.44592,0 -4.268601,-1.422867 -5.468043,-4.268601 -1.199442,-2.845735 -1.799163,-6.691004 -1.799163,-11.535808 0,-4.13925 0.293981,-7.855167 0.881943,-11.147752 0.211666,-1.222961 0.505647,-2.046107 0.881942,-2.469439 0.399814,-0.446851 1.07009,-0.670277 2.010829,-0.670277 1.552219,0 2.328328,0.670276 2.328328,2.010829 0,0.141111 -0.02352,0.399814 -0.07055,0.77611 -0.705554,4.233323 -1.058331,8.066833 -1.058331,11.500529 0,3.598325 0.293981,6.338227 0.881942,8.219704 0.611481,1.857959 1.516942,2.786938 2.716383,2.786938 1.222961,0 2.551754,-0.846665 3.98638,-2.539994 1.434627,-1.693329 2.751661,-3.82175 3.951102,-6.385263 -1.434626,-0.893702 -2.516475,-2.046107 -3.245548,-3.457215 -0.729073,-1.434627 -1.093609,-3.080919 -1.093609,-4.938878 0,-1.857959 0.282222,-3.421937 0.846665,-4.691934 0.587962,-1.293515 1.375831,-2.257772 2.363606,-2.892771 1.011294,-0.634999 2.128421,-0.952498 3.351381,-0.952498 1.505182,0 2.692865,0.540925 3.563048,1.622774 0.893701,1.08185 1.340552,2.563513 1.340552,4.44499 0,2.704624 -0.99645,6.444671 -2.172373,9.643182 1.151482,0.724652 1.287208,0.794128 1.705651,1.05373 0.43491,0.269818 0.846991,0.568001 1.06872,0.750474 z m -8.504203,-9.224895 c 0,2.30481 0.740832,4.009899 2.222495,5.115267 0.91722,-2.634069 1.37583,-4.809527 1.37583,-6.526375 0,-0.987775 -0.129351,-1.705088 -0.388054,-2.151939 -0.258703,-0.470369 -0.61148,-0.705554 -1.058331,-0.705554 -0.634999,0 -1.152405,0.376295 -1.552219,1.128886 -0.399814,0.729073 -0.599721,1.775644 -0.599721,3.139715 z"
           id="path447" />
      </g>
      <g
         aria-label="el"
         id="text240"
         style="font-size:35.2777px;font-family:Pacifico;-inkscape-font-specification:'Pacifico, Normal';display:inline;stop-color:#000000"
         transform="translate(-0.21265512,-0.02237247)">
        <path
           d="m 68.325109,51.672791 q 0.45861,0 0.705554,0.423332 0.282222,0.423332 0.282222,1.164164 0,1.411108 -0.670276,2.187217 -1.305275,1.587497 -3.704159,2.928049 -2.363606,1.340553 -5.079988,1.340553 -3.704159,0 -5.750265,-2.010829 -2.046107,-2.010829 -2.046107,-5.503321 0,-2.434161 1.023054,-4.515545 1.023053,-2.116662 2.822215,-3.351382 1.834441,-1.234719 4.127491,-1.234719 2.046107,0 3.280826,1.234719 1.23472,1.199442 1.23472,3.280826 0,2.434161 -1.763885,4.198046 -1.728608,1.728608 -5.891376,2.751661 0.881942,1.622774 3.351381,1.622774 1.587497,0 3.598326,-1.093609 2.046106,-1.128886 3.527769,-2.928049 0.423333,-0.493887 0.952498,-0.493887 z m -8.88998,-5.115267 q -1.305275,0 -2.222495,1.516941 -0.881942,1.516941 -0.881942,3.668881 v 0.07055 q 2.081384,-0.493887 3.280826,-1.481663 1.199442,-0.987775 1.199442,-2.29305 0,-0.670277 -0.388055,-1.058331 -0.352777,-0.423333 -0.987776,-0.423333 z"
           id="path450" />
        <path
           d="m 76.650634,54.565562 q 0.388055,-0.352777 0.776109,-0.352777 0.423333,0 0.670277,0.493888 0.282221,0.45861 0.282221,1.128886 0,1.481663 -1.058331,2.363606 -1.83444,1.516941 -4.162768,1.516941 -3.351382,0 -4.9036,-2.786938 -1.552219,-2.822216 -1.552219,-7.337762 0,-4.303879 1.093609,-9.8072 1.128886,-5.503321 3.280826,-9.454423 2.187217,-3.951102 5.185821,-3.951102 1.69333,0 2.645828,1.587496 0.987775,1.552219 0.987775,4.480268 0,4.198046 -2.328328,9.736645 -2.29305,5.538598 -6.27943,10.936086 0.246944,1.446386 0.881942,2.081384 0.634999,0.634999 1.728607,0.634999 0.599721,0 1.340553,-0.352777 0.776109,-0.352777 1.411108,-0.91722 z M 75.48647,29.871173 q -0.811387,0 -1.83444,2.928049 -1.023054,2.928049 -1.799163,7.267206 -0.776109,4.339157 -0.846665,8.325537 2.504717,-4.127491 3.98638,-8.254982 1.481663,-4.162768 1.481663,-7.584705 0,-2.681105 -0.987775,-2.681105 z"
           id="path452" />
      </g>
    </g>
  </g>
</svg>
