<?xml version="1.0" encoding="UTF-8" standalone="no"?>
<!-- Created with Inkscape (http://www.inkscape.org/) -->

<svg
   width="49.586418mm"
   height="33.641415mm"
   viewBox="0 0 49.586418 33.641415"
   version="1.1"
   id="svg5"
   inkscape:version="1.2 (dc2aeda, 2022-05-15)"
   sodipodi:docname="logo.inkscape.svg"
   xmlns:inkscape="http://www.inkscape.org/namespaces/inkscape"
   xmlns:sodipodi="http://sodipodi.sourceforge.net/DTD/sodipodi-0.dtd"
   xmlns="http://www.w3.org/2000/svg"
   xmlns:svg="http://www.w3.org/2000/svg">
  <sodipodi:namedview
     id="namedview7"
     pagecolor="#ffffff"
     bordercolor="#000000"
     borderopacity="0.25"
     inkscape:showpageshadow="2"
     inkscape:pageopacity="0.0"
     inkscape:pagecheckerboard="0"
     inkscape:deskcolor="#d1d1d1"
     inkscape:document-units="mm"
     showgrid="false"
     inkscape:zoom="0.87036336"
     inkscape:cx="140.74582"
     inkscape:cy="313.08763"
     inkscape:window-width="1390"
     inkscape:window-height="1127"
     inkscape:window-x="0"
     inkscape:window-y="25"
     inkscape:window-maximized="0"
     inkscape:current-layer="g436" />
  <defs
     id="defs2" />
  <g
     inkscape:label="Layer"
     inkscape:groupmode="layer"
     id="layer1"
     transform="translate(-27.442536,-18.21358)">
    <g
       id="g436"
       inkscape:label="Vel"
       transform="translate(-5.4718526,-6.9918117)">
      <g
         aria-label="V"
         id="text186"
         style="font-size:35.2777px;font-family:Pacifico;-inkscape-font-specification:'Pacifico, Normal';stop-color:#000000"
         inkscape:label="V">
        <path
           d="m 59.055163,43.430452 q 0.811387,0 1.164164,0.352777 0.388055,0.352777 0.388055,0.91722 0,0.91722 -0.564443,1.622774 -0.529166,0.705554 -1.69333,0.740832 -2.822216,0.07055 -5.009433,-0.423332 -2.504717,5.256377 -6.067764,8.748869 -3.52777,3.457214 -7.090818,3.457214 -3.66888,0 -5.468043,-4.268601 -1.799163,-4.268602 -1.799163,-11.535808 0,-6.208875 0.881943,-11.147752 0.317499,-1.834441 0.881942,-2.469439 0.599721,-0.670277 2.010829,-0.670277 2.328328,0 2.328328,2.010829 0,0.211666 -0.07055,0.77611 -1.058331,6.349985 -1.058331,11.500529 0,5.397488 0.881942,8.219704 0.917221,2.786938 2.716383,2.786938 1.834441,0 3.98638,-2.539994 2.15194,-2.539994 3.951102,-6.385263 -2.151939,-1.340553 -3.245548,-3.457215 -1.093609,-2.15194 -1.093609,-4.938878 0,-2.786938 0.846665,-4.691934 0.881943,-1.940273 2.363606,-2.892771 1.516941,-0.952498 3.351381,-0.952498 2.257773,0 3.563048,1.622774 1.340552,1.622775 1.340552,4.44499 0,4.056936 -1.763884,8.854703 1.869718,0.317499 4.268601,0.317499 z M 48.648242,36.480745 q 0,3.457215 2.222495,5.115267 1.37583,-3.951103 1.37583,-6.526375 0,-1.481663 -0.388054,-2.151939 -0.388055,-0.705554 -1.058331,-0.705554 -0.952498,0 -1.552219,1.128886 -0.599721,1.093609 -0.599721,3.139715 z"
           id="path447"
           inkscape:label="V" />
      </g>
      <g
         aria-label="el"
         id="text240"
         style="font-size:35.2777px;font-family:Pacifico;-inkscape-font-specification:'Pacifico, Normal';stop-color:#000000"
         inkscape:label="el">
        <path
           d="m 70.929731,50.499502 q 0.45861,0 0.705554,0.423332 0.282222,0.423332 0.282222,1.164164 0,1.411108 -0.670276,2.187217 -1.305275,1.587497 -3.704159,2.928049 -2.363606,1.340553 -5.079988,1.340553 -3.704159,0 -5.750265,-2.010829 -2.046107,-2.010829 -2.046107,-5.503321 0,-2.434161 1.023054,-4.515545 1.023053,-2.116662 2.822215,-3.351382 1.834441,-1.234719 4.127491,-1.234719 2.046107,0 3.280826,1.234719 1.23472,1.199442 1.23472,3.280826 0,2.434161 -1.763885,4.198046 -1.728608,1.728608 -5.891376,2.751661 0.881942,1.622774 3.351381,1.622774 1.587497,0 3.598326,-1.093609 2.046106,-1.128886 3.527769,-2.928049 0.423333,-0.493887 0.952498,-0.493887 z m -8.88998,-5.115267 q -1.305275,0 -2.222495,1.516941 -0.881942,1.516941 -0.881942,3.668881 v 0.07055 q 2.081384,-0.493887 3.280826,-1.481663 1.199442,-0.987775 1.199442,-2.29305 0,-0.670277 -0.388055,-1.058331 Q 62.67475,45.38423 62.039751,45.38423 Z"
           id="path450"
           inkscape:label="e" />
        <path
           d="m 79.255256,53.392273 q 0.388055,-0.352777 0.776109,-0.352777 0.423333,0 0.670277,0.493888 0.282221,0.45861 0.282221,1.128886 0,1.481663 -1.058331,2.363606 -1.83444,1.516941 -4.162768,1.516941 -3.351382,0 -4.9036,-2.786938 -1.552219,-2.822216 -1.552219,-7.337762 0,-4.303879 1.093609,-9.8072 1.128886,-5.503321 3.280826,-9.454423 2.187217,-3.951102 5.185821,-3.951102 1.69333,0 2.645828,1.587496 0.987775,1.552219 0.987775,4.480268 0,4.198046 -2.328328,9.736645 -2.29305,5.538598 -6.27943,10.936086 0.246944,1.446386 0.881942,2.081384 0.634999,0.634999 1.728607,0.634999 0.599721,0 1.340553,-0.352777 0.776109,-0.352777 1.411108,-0.91722 z M 78.091092,28.697884 q -0.811387,0 -1.83444,2.928049 -1.023054,2.928049 -1.799163,7.267206 -0.776109,4.339157 -0.846665,8.325537 2.504717,-4.127491 3.98638,-8.254982 1.481663,-4.162768 1.481663,-7.584705 0,-2.681105 -0.987775,-2.681105 z"
           id="path452"
           inkscape:label="l" />
      </g>
    </g>
  </g>
</svg>
