<?xml version="1.0" encoding="UTF-8" standalone="no"?>
<!-- Created with Inkscape (http://www.inkscape.org/) -->

<svg
   width="50mm"
   height="35mm"
   viewBox="0 0 50.000002 35"
   version="1.1"
   id="svg5"
   inkscape:version="1.2 (dc2aeda, 2022-05-15)"
   sodipodi:docname="logo.inkscape.svg"
   inkscape:export-filename="logo.svg"
   inkscape:export-xdpi="520.19202"
   inkscape:export-ydpi="520.19202"
   xmlns:inkscape="http://www.inkscape.org/namespaces/inkscape"
   xmlns:sodipodi="http://sodipodi.sourceforge.net/DTD/sodipodi-0.dtd"
   xmlns="http://www.w3.org/2000/svg"
   xmlns:svg="http://www.w3.org/2000/svg">
  <sodipodi:namedview
     id="namedview7"
     pagecolor="#ffffff"
     bordercolor="#000000"
     borderopacity="0.25"
     inkscape:showpageshadow="2"
     inkscape:pageopacity="0.0"
     inkscape:pagecheckerboard="0"
     inkscape:deskcolor="#d1d1d1"
     inkscape:document-units="mm"
     showgrid="false"
     inkscape:zoom="1.4883259"
     inkscape:cx="0.33594793"
     inkscape:cy="64.166055"
     inkscape:window-width="1390"
     inkscape:window-height="1127"
     inkscape:window-x="453"
     inkscape:window-y="25"
     inkscape:window-maximized="0"
     inkscape:current-layer="layer1" />
  <defs
     id="defs2" />
  <g
     inkscape:label="Layer"
     inkscape:groupmode="layer"
     id="layer1"
     transform="translate(-33.357894,-22.762459)">
    <g
       id="g436"
       inkscape:label="Vel"
       transform="translate(3.3936646,-2.8561064)">
      <g
         aria-label="V"
         id="text186"
         style="font-size:35.2777px;font-family:Pacifico;-inkscape-font-specification:'Pacifico, Normal';stop-color:#000000"
         inkscape:label="V"
         transform="translate(-2.5624382,0.61063845)">
        <path
           d="m 53.773702,46.40726 c -1.669811,3.504251 -3.596765,6.654002 -5.97213,8.98233 -2.351847,2.304809 -4.715453,3.457214 -7.090818,3.457214 -2.44592,0 -4.268601,-1.422867 -5.468043,-4.268601 -1.199442,-2.845735 -1.799163,-6.691004 -1.799163,-11.535808 0,-4.13925 0.293981,-7.855167 0.881943,-11.147752 0.211666,-1.222961 0.505647,-2.046107 0.881942,-2.469439 0.399814,-0.446851 1.07009,-0.670277 2.010829,-0.670277 1.552219,0 2.328328,0.670276 2.328328,2.010829 0,0.141111 -0.02352,0.399814 -0.07055,0.77611 -0.705554,4.233323 -1.058331,8.066833 -1.058331,11.500529 0,3.598325 0.293981,6.338227 0.881942,8.219704 0.611481,1.857959 1.516942,2.786938 2.716383,2.786938 1.222961,0 2.551754,-0.846665 3.98638,-2.539994 1.434627,-1.693329 2.751661,-3.82175 3.951102,-6.385263 -1.434626,-0.893702 -2.516475,-2.046107 -3.245548,-3.457215 -0.729073,-1.434627 -1.093609,-3.080919 -1.093609,-4.938878 0,-1.857959 0.282222,-3.421937 0.846665,-4.691934 0.587962,-1.293515 1.375831,-2.257772 2.363606,-2.892771 1.011294,-0.634999 2.128421,-0.952498 3.351381,-0.952498 1.505182,0 2.692865,0.540925 3.563048,1.622774 0.893701,1.08185 1.340552,2.563513 1.340552,4.44499 0,2.704624 -0.83676,5.881744 -2.012683,9.080255 0.989929,0.292355 2.290186,0.42911 3.447367,0.412132 0.44371,-0.0065 0.875793,-0.146144 1.316657,-0.196741 0.41766,-0.04793 1.003398,-0.436236 1.257149,-0.101052 0.198468,0.262159 -0.154099,0.655708 -0.342885,0.924923 -0.195563,0.278879 -0.491725,0.478611 -0.779782,0.660383 -0.440223,0.277794 -1.268445,0.614415 -1.945178,0.795322 -1.379927,0.368886 -3.332476,0.681534 -4.246559,0.57378 z m -4.596293,-9.926515 c 0,2.30481 0.740832,4.009899 2.222495,5.115267 0.91722,-2.634069 1.37583,-4.809527 1.37583,-6.526375 0,-0.987775 -0.129351,-1.705088 -0.388054,-2.151939 -0.258703,-0.470369 -0.61148,-0.705554 -1.058331,-0.705554 -0.634999,0 -1.152405,0.376295 -1.552219,1.128886 -0.399814,0.729073 -0.599721,1.775644 -0.599721,3.139715 z"
           id="path447"
           inkscape:label="V"
           sodipodi:nodetypes="ccsssccsscscssccsccscscaaaaaaccscscscs" />
      </g>
      <g
         aria-label="el"
         id="text240"
         style="font-size:35.2777px;font-family:Pacifico;-inkscape-font-specification:'Pacifico, Normal';display:inline;stop-color:#000000"
         inkscape:label="el"
         transform="translate(-0.49328811,0.07117186)">
        <path
           d="m 68.325109,51.672791 q 0.45861,0 0.705554,0.423332 0.282222,0.423332 0.282222,1.164164 0,1.411108 -0.670276,2.187217 -1.305275,1.587497 -3.704159,2.928049 -2.363606,1.340553 -5.079988,1.340553 -3.704159,0 -5.750265,-2.010829 -2.046107,-2.010829 -2.046107,-5.503321 0,-2.434161 1.023054,-4.515545 1.023053,-2.116662 2.822215,-3.351382 1.834441,-1.234719 4.127491,-1.234719 2.046107,0 3.280826,1.234719 1.23472,1.199442 1.23472,3.280826 0,2.434161 -1.763885,4.198046 -1.728608,1.728608 -5.891376,2.751661 0.881942,1.622774 3.351381,1.622774 1.587497,0 3.598326,-1.093609 2.046106,-1.128886 3.527769,-2.928049 0.423333,-0.493887 0.952498,-0.493887 z m -8.88998,-5.115267 q -1.305275,0 -2.222495,1.516941 -0.881942,1.516941 -0.881942,3.668881 v 0.07055 q 2.081384,-0.493887 3.280826,-1.481663 1.199442,-0.987775 1.199442,-2.29305 0,-0.670277 -0.388055,-1.058331 -0.352777,-0.423333 -0.987776,-0.423333 z"
           id="path450"
           inkscape:label="e" />
        <path
           d="m 76.650634,54.565562 q 0.388055,-0.352777 0.776109,-0.352777 0.423333,0 0.670277,0.493888 0.282221,0.45861 0.282221,1.128886 0,1.481663 -1.058331,2.363606 -1.83444,1.516941 -4.162768,1.516941 -3.351382,0 -4.9036,-2.786938 -1.552219,-2.822216 -1.552219,-7.337762 0,-4.303879 1.093609,-9.8072 1.128886,-5.503321 3.280826,-9.454423 2.187217,-3.951102 5.185821,-3.951102 1.69333,0 2.645828,1.587496 0.987775,1.552219 0.987775,4.480268 0,4.198046 -2.328328,9.736645 -2.29305,5.538598 -6.27943,10.936086 0.246944,1.446386 0.881942,2.081384 0.634999,0.634999 1.728607,0.634999 0.599721,0 1.340553,-0.352777 0.776109,-0.352777 1.411108,-0.91722 z M 75.48647,29.871173 q -0.811387,0 -1.83444,2.928049 -1.023054,2.928049 -1.799163,7.267206 -0.776109,4.339157 -0.846665,8.325537 2.504717,-4.127491 3.98638,-8.254982 1.481663,-4.162768 1.481663,-7.584705 0,-2.681105 -0.987775,-2.681105 z"
           id="path452"
           inkscape:label="l" />
      </g>
    </g>
  </g>
</svg>
